# xmcd
#
# Track frame offsets: 
#        150
#        12495
#        27391
#        41748
#        54393
#        66965
#        83269
#        99844
#        116409
#        134585
#        148402
#        169807
#        189474
#        203504
#        222659
#        233849
#        252877
#        268395
#        286171
#        310089
#
# Disc length: 4294 seconds
#
# Revision: 0
# Processed by: cddbd v1.5.2PL0 Copyright (c) Steve Scherf et al.
# Submitted via: ExactAudioCopyFreeDBPlugin 1.0
#
DISCID=2610c414
DTITLE=Greek Music - 2011 Traditional Songs of Rhodes-Kos
DYEAR=2011
DGENRE=Folk
TTITLE0=Pios plironi ton varkari
TTITLE1=Kathe limani ke kaimos
TTITLE2=Den tha horisoume pote
TTITLE3=I garsona
TTITLE4=Karotseri trava
TTITLE5=Ta lemonadika
TTITLE6=Delfini delfinaki
TTITLE7=Esti in`i zoi
TTITLE8=Aivaliotiko
TTITLE9=Aponi zoi
TTITLE10=The day has troubles ( Rhodes )
TTITLE11=Kritikos - Sousta from embona ( Rhodes )
TTITLE12=For years I sail the seas ( Rhodes )
TTITLE13=The Cordon ( Rhodes )
TTITLE14=Sousta of Rhodes ( Rhodes )
TTITLE15=My baby (my dear one) ( Kos )
TTITLE16=Ballad of the maid and youth ( Kos )
TTITLE17=Issos dance with open strings ( Kos )
TTITLE18=Tune of the down ( Kos )
TTITLE19=My dark-haired lass ( Kos )
EXTD=
EXTT0=
EXTT1=
EXTT2=
EXTT3=
EXTT4=
EXTT5=
EXTT6=
EXTT7=
EXTT8=
EXTT9=
EXTT10=
EXTT11=
EXTT12=
EXTT13=
EXTT14=
EXTT15=
EXTT16=
EXTT17=
EXTT18=
EXTT19=
PLAYORDER=
